<svg xmlns="http://www.w3.org/2000/svg" width="9.996" height="9.495" viewBox="0 0 9.996 9.495">
  <g id="circle-arrow" transform="translate(448.999 -5.251)">
    <path id="Path_35" data-name="Path 35" d="M11.351,6.6l-.073-.084a.75.75,0,0,0-.976-.073l-.084.073-4,4a.75.75,0,0,0-.073.976l.073.084,4,4a.75.75,0,0,0,1.132-.976l-.073-.084L8.558,11.8h6.688a.75.75,0,0,0,.743-.648l.007-.1a.75.75,0,0,0-.648-.743l-.1-.007H8.56l2.718-2.718a.75.75,0,0,0,.073-.976l-.073-.084Z" transform="translate(-454.999 -1.049)" fill="#fff"/>
  </g>
</svg>
