<svg xmlns="http://www.w3.org/2000/svg" width="48" height="48" viewBox="0 0 48 48">
  <g id="Committees-icon" transform="translate(-148.36 -21.36)">
    <circle id="Ellipse_7" data-name="Ellipse 7" cx="24" cy="24" r="24" transform="translate(148.36 21.36)" fill="#887852" opacity="0.12"/>
    <g id="Group_55776" data-name="Group 55776" transform="translate(155.17 30.438)">
      <path id="Path_122677" data-name="Path 122677" d="M43.22,66.9H41.761a.491.491,0,1,1,0-.982H43.22a.491.491,0,1,1,0,.982Z" transform="translate(-21.982 -37.058)" fill="#9c895b" stroke="#9c895b" stroke-width="0.3"/>
      <path id="Path_122678" data-name="Path 122678" d="M35.966,53.474h-7.1a.491.491,0,1,1,0-.982h6.606V40.512H7.292V52.492h8.379a.491.491,0,1,1,0,.982H6.8a.491.491,0,0,1-.491-.491V40.021A.491.491,0,0,1,6.8,39.53H35.966a.491.491,0,0,1,.491.491V52.983A.491.491,0,0,1,35.966,53.474Z" transform="translate(-4.193 -23.629)" fill="#9c895b" stroke="#9c895b" stroke-width="0.3"/>
      <path id="Path_122679" data-name="Path 122679" d="M18.341,49.748H16.916a.491.491,0,1,1,0-.982h1.424a.491.491,0,1,1,0,.982ZM35.552,36.787H2.829A.83.83,0,0,1,2,35.958V33.036a.83.83,0,0,1,.829-.829H35.552a.83.83,0,0,1,.829.829v2.923A.83.83,0,0,1,35.552,36.787ZM2.982,35.8H35.4V33.189H2.982Z" transform="translate(-2 -19.903)" fill="#9c895b" stroke="#9c895b" stroke-width="0.3"/>
      <g id="Group_55778" data-name="Group 55778" transform="translate(23.084 0.871)">
        <path id="Path_122680" data-name="Path 122680" d="M50.391,18.492h-9.35a.441.441,0,0,1-.441-.441V15.913a3.2,3.2,0,0,1,3.2-3.2h3.833a3.2,3.2,0,0,1,3.2,3.2V18.05a.441.441,0,0,1-.44.441Zm-8.907-.883H49.95v-1.7A2.32,2.32,0,0,0,47.633,13.6H43.8a2.32,2.32,0,0,0-2.317,2.317Zm4.233-6.06a2.736,2.736,0,1,1,2.736-2.736A2.736,2.736,0,0,1,45.716,11.55Zm0-4.59A1.854,1.854,0,1,0,47.57,8.813,1.854,1.854,0,0,0,45.716,6.96Z" transform="translate(-40.6 -6.077)" fill="#9c895b" stroke="#9c895b" stroke-width="0.3"/>
        <path id="Path_122683" data-name="Path 122683" d="M51.028,31.493H46.463a.441.441,0,0,1-.441-.441V29.79a.441.441,0,0,1,.883,0v.82h3.682v-.82a.441.441,0,0,1,.883,0v1.261A.441.441,0,0,1,51.028,31.493Z" transform="translate(-43.629 -19.078)" fill="#9c895b" stroke="#9c895b" stroke-width="0.3"/>
      </g>
      <g id="Group_55779" data-name="Group 55779" transform="translate(11.716)">
        <path id="Path_122680-2" data-name="Path 122680" d="M51.078,19.363H41.072a.472.472,0,0,1-.472-.472V16.6a3.428,3.428,0,0,1,3.424-3.424h4.1A3.428,3.428,0,0,1,51.55,16.6v2.288A.472.472,0,0,1,51.078,19.363Zm-9.533-.945h9.06V16.6a2.482,2.482,0,0,0-2.479-2.48h-4.1a2.482,2.482,0,0,0-2.48,2.48Zm4.53-6.485A2.928,2.928,0,1,1,49,9.005,2.928,2.928,0,0,1,46.076,11.934Zm0-4.912a1.984,1.984,0,1,0,1.984,1.984,1.984,1.984,0,0,0-1.984-1.984Z" transform="translate(-40.6 -6.077)" fill="#9c895b" stroke="#9c895b" stroke-width="0.3"/>
        <path id="Path_122683-2" data-name="Path 122683" d="M51.379,31.643H46.494a.472.472,0,0,1-.472-.472v-1.35a.472.472,0,1,1,.945,0V30.7h3.94v-.878a.472.472,0,0,1,.945,0v1.35a.472.472,0,0,1-.472.472Z" transform="translate(-43.461 -18.357)" fill="#9c895b" stroke="#9c895b" stroke-width="0.3"/>
      </g>
      <g id="Group_55777" data-name="Group 55777" transform="translate(1.378 1.251)">
        <path id="Path_122681" data-name="Path 122681" d="M19.706,18.112H10.643a.428.428,0,0,1-.428-.428V15.611a3.105,3.105,0,0,1,3.1-3.1h3.715a3.105,3.105,0,0,1,3.1,3.1v2.072a.428.428,0,0,1-.427.428Zm-8.635-.856h8.207V15.611a2.249,2.249,0,0,0-2.246-2.246H13.316a2.249,2.249,0,0,0-2.246,2.246Zm4.1-5.874A2.653,2.653,0,1,1,17.827,8.73,2.653,2.653,0,0,1,15.174,11.382Zm0-4.449a1.8,1.8,0,1,0,1.8,1.8,1.8,1.8,0,0,0-1.8-1.8Z" transform="translate(-10.215 -6.077)" fill="#9c895b" stroke="#9c895b" stroke-width="0.3"/>
        <path id="Path_122682" data-name="Path 122682" d="M20.488,31.427H16.063A.428.428,0,0,1,15.635,31V29.777a.428.428,0,0,1,.856,0v.795H20.06v-.795a.428.428,0,0,1,.856,0V31A.428.428,0,0,1,20.488,31.427Z" transform="translate(-13.316 -19.393)" fill="#9c895b" stroke="#9c895b" stroke-width="0.3"/>
      </g>
    </g>
  </g>
</svg>
