<svg xmlns="http://www.w3.org/2000/svg" width="16.004" height="15.337" viewBox="0 0 16.004 15.337">
  <path id="follow" d="M3.583,15.829a.852.852,0,0,1-.829-1.04l1.03-4.535L.292,7.192A.851.851,0,0,1,.774,5.7l4.62-.419L7.22,1.009a.851.851,0,0,1,1.564,0l1.827,4.275L15.23,5.7a.851.851,0,0,1,.484,1.488l-3.492,3.061,1.03,4.535a.85.85,0,0,1-1.266.919L8,13.326,4.019,15.708a.852.852,0,0,1-.436.121ZM8,12.3a.853.853,0,0,1,.436.121L12.2,14.67l-.972-4.281a.851.851,0,0,1,.269-.829l3.3-2.891-4.362-.4a.85.85,0,0,1-.707-.516L8,1.724,6.279,5.758a.847.847,0,0,1-.7.514l-4.362.4,3.3,2.891a.849.849,0,0,1,.269.83l-.971,4.28,3.76-2.248A.852.852,0,0,1,8,12.3ZM5.358,5.366h0Zm5.287,0h0Zm0,0" transform="translate(-0.001 -0.492)" fill="#756b65"/>
</svg>
