<svg xmlns="http://www.w3.org/2000/svg" width="17.96" height="19.505" viewBox="0 0 17.96 19.505">
  <path id="notification" d="M9,1a7.491,7.491,0,0,1,7.5,7.249l0,.251v4.1l1.38,3.156A1.25,1.25,0,0,1,16.735,17.5L12,17.5A3,3,0,0,1,6,17.678L6,17.5H1.275A1.25,1.25,0,0,1,.128,15.752L1.5,12.594V8.5A7.489,7.489,0,0,1,9,1Zm1.5,16.5-3,0a1.5,1.5,0,0,0,2.993.144ZM9,2.5a5.988,5.988,0,0,0-6,6v4.41L1.656,16h14.7L15,12.907v-4.4l0-.225A5.988,5.988,0,0,0,9,2.5Z" transform="translate(-0.024 -0.996)" fill="#fff"/>
</svg>
