<svg xmlns="http://www.w3.org/2000/svg" width="20" height="20" viewBox="0 0 20 20">
  <path id="Question_Circle" data-name="Question Circle" d="M10,0A10,10,0,1,1,0,10,10,10,0,0,1,10,0Zm0,1.667A8.333,8.333,0,1,0,18.333,10,8.342,8.342,0,0,0,10,1.667ZM10,13.5a1,1,0,1,1-1,1A1,1,0,0,1,10,13.5Zm0-8.75A2.75,2.75,0,0,1,12.75,7.5,2.992,2.992,0,0,1,11.7,9.859l-.169.172c-.622.622-.78.886-.78,1.47a.75.75,0,0,1-1.5,0A2.992,2.992,0,0,1,10.3,9.141l.169-.172c.622-.622.78-.886.78-1.47a1.25,1.25,0,0,0-2.494-.128L8.75,7.5a.75.75,0,0,1-1.5,0A2.75,2.75,0,0,1,10,4.75Z" fill="#fff"/>
</svg>
