<svg xmlns="http://www.w3.org/2000/svg" width="20.363" height="19.807" viewBox="0 0 20.363 19.807">
  <g id="share" transform="translate(8.862 0.116) rotate(34)">
    <path id="Path_185" data-name="Path 185" d="M44.475,16.906a6.632,6.632,0,0,0-3-7.169.256.256,0,1,0-.269.436,6.122,6.122,0,0,1,2.783,6.556,1.8,1.8,0,1,0,.485.177Z" transform="translate(-30.563 -7.214)" fill="#756b65" stroke="#756b65" stroke-width="0.8"/>
    <path id="Path_186" data-name="Path 186" d="M9.777,41.4A6.144,6.144,0,0,1,3.069,40.05a1.793,1.793,0,1,0-.41.312,6.653,6.653,0,0,0,7.314,1.512.256.256,0,1,0-.2-.473Z" transform="translate(0 -27.523)" fill="#756b65" stroke="#756b65" stroke-width="0.8"/>
    <path id="Path_187" data-name="Path 187" d="M3.309,7.994h.018a.256.256,0,0,0,.255-.238A6.116,6.116,0,0,1,7.993,2.3a1.79,1.79,0,1,0-.074-.511A6.626,6.626,0,0,0,3.071,7.721.256.256,0,0,0,3.309,7.994Z" transform="translate(-2.284)" fill="#756b65" stroke="#756b65" stroke-width="0.8"/>
  </g>
</svg>
