<svg xmlns="http://www.w3.org/2000/svg" width="33.5" height="33.5" viewBox="0 0 33.5 33.5">
  <g id="buildings-2" transform="translate(0.75 0.75)">
    <path id="Path_122789" data-name="Path 122789" d="M9.526,27.621H5.443C3.153,27.621,2,26.468,2,24.178V5.443C2,3.153,3.153,2,5.443,2h6.885c2.29,0,3.443,1.153,3.443,3.443V8.405" transform="translate(-2 -2)" fill="none" stroke="#887852" stroke-linecap="round" stroke-linejoin="round" stroke-miterlimit="10" stroke-width="1.5"/>
    <path id="Path_122790" data-name="Path 122790" d="M23.76,9.875v17.87c0,2.578-1.279,3.875-3.853,3.875H10.569C8,31.621,6.7,30.323,6.7,27.745V9.875C6.7,7.3,8,6,10.569,6h9.338C22.481,6,23.76,7.3,23.76,9.875Z" transform="translate(0.826 0.38)" fill="none" stroke="#887852" stroke-linecap="round" stroke-linejoin="round" stroke-miterlimit="10" stroke-width="1.5"/>
    <path id="Path_122791" data-name="Path 122791" d="M13.4,8.405V5.443C13.4,3.153,14.553,2,16.843,2h6.886c2.29,0,3.443,1.153,3.443,3.443V24.178c0,2.29-1.153,3.443-3.443,3.443H19.757" transform="translate(4.829 -2)" fill="none" stroke="#887852" stroke-linecap="round" stroke-linejoin="round" stroke-miterlimit="10" stroke-width="1.5"/>
    <path id="Path_122792" data-name="Path 122792" d="M10,11h6.405" transform="translate(2.798 3.4)" fill="none" stroke="#887852" stroke-linecap="round" stroke-linejoin="round" stroke-miterlimit="10" stroke-width="1.5"/>
    <path id="Path_122793" data-name="Path 122793" d="M10,14h6.405" transform="translate(2.798 5.2)" fill="none" stroke="#887852" stroke-linecap="round" stroke-linejoin="round" stroke-miterlimit="10" stroke-width="1.5"/>
    <path id="Path_122794" data-name="Path 122794" d="M12,23.8V19" transform="translate(4 8.196)" fill="none" stroke="#887852" stroke-linecap="round" stroke-linejoin="round" stroke-miterlimit="10" stroke-width="1.5"/>
  </g>
</svg>
