<svg id="icon2" xmlns="http://www.w3.org/2000/svg" width="32" height="32" viewBox="0 0 32 32">
  <g id="Rectangle_11407" data-name="Rectangle 11407" fill="none" stroke="#887852" stroke-width="1.5">
    <rect width="32" height="32" rx="4" stroke="none"/>
    <rect x="0.75" y="0.75" width="30.5" height="30.5" rx="3.25" fill="none"/>
  </g>
  <path id="Path_122818" data-name="Path 122818" d="M21.68,16.96,18.55,9.65c-1.06-2.48-3.01-2.58-4.32-.22l-1.89,3.41a2.24,2.24,0,0,1-3.99.33l-.22-.28c-1.29-1.62-3.11-1.42-4.04.43L2.37,16.77A3.608,3.608,0,0,0,5.59,22H18.35A3.617,3.617,0,0,0,21.68,16.96Z" transform="translate(4.023 4)" fill="none" stroke="#887852" stroke-linecap="round" stroke-linejoin="round" stroke-width="1.5"/>
  <path id="Path_122819" data-name="Path 122819" d="M6.97,8a3,3,0,1,0-3-3A3,3,0,0,0,6.97,8Z" transform="translate(4.023 4)" fill="none" stroke="#887852" stroke-linecap="round" stroke-linejoin="round" stroke-width="1.5"/>
</svg>
