<svg xmlns="http://www.w3.org/2000/svg" width="31.988" height="31.988" viewBox="0 0 31.988 31.988">
  <g id="key-square" transform="translate(-1.25 -1.25)">
    <path id="Path_122844" data-name="Path 122844" d="M12.671,32.488h9.146c7.622,0,10.671-3.049,10.671-10.671V12.671C32.488,5.049,29.439,2,21.817,2H12.671C5.049,2,2,5.049,2,12.671v9.146C2,29.439,5.049,32.488,12.671,32.488Z" fill="none" stroke="#887852" stroke-linecap="round" stroke-linejoin="round" stroke-width="1.5"/>
    <path id="Path_122845" data-name="Path 122845" d="M21.407,17.331a6.322,6.322,0,0,1-6.372,1.57l-3.948,3.933a1.606,1.606,0,0,1-1.25.412L8.008,23a1.559,1.559,0,0,1-1.25-1.25l-.244-1.829a1.706,1.706,0,0,1,.412-1.25l3.933-3.933a6.345,6.345,0,1,1,10.549,2.592Z" transform="translate(2.361 2.368)" fill="none" stroke="#887852" stroke-linecap="round" stroke-linejoin="round" stroke-miterlimit="10" stroke-width="1.5"/>
    <path id="Path_122846" data-name="Path 122846" d="M10.9,16.731,9.6,15.42" transform="translate(3.986 7.038)" fill="none" stroke="#887852" stroke-linecap="round" stroke-linejoin="round" stroke-miterlimit="10" stroke-width="1.5"/>
    <path id="Path_122847" data-name="Path 122847" d="M13.395,10.7h.014" transform="translate(5.975 4.562)" fill="none" stroke="#887852" stroke-linecap="round" stroke-linejoin="round" stroke-width="2"/>
  </g>
</svg>
