<svg xmlns="http://www.w3.org/2000/svg" width="30.785" height="30.84" viewBox="0 0 30.785 30.84">
  <g id="people" transform="translate(-1.252 -1.25)">
    <path id="Path_122795" data-name="Path 122795" d="M19.246,9.569a.888.888,0,0,0-.279,0,3.792,3.792,0,1,1,.279,0Z" transform="translate(6.222)" fill="none" stroke="#887852" stroke-linecap="round" stroke-linejoin="round" stroke-width="1.5"/>
    <path id="Path_122796" data-name="Path 122796" d="M16.984,16.746a8.265,8.265,0,0,0,5.779-1.056c2.068-1.379,2.068-3.638,0-5.017A8.317,8.317,0,0,0,16.94,9.632" transform="translate(6.973 3.501)" fill="none" stroke="#887852" stroke-linecap="round" stroke-linejoin="round" stroke-width="1.5"/>
    <path id="Path_122797" data-name="Path 122797" d="M7.132,9.569a.888.888,0,0,1,.279,0,3.792,3.792,0,1,0-.279,0Z" transform="translate(0.69)" fill="none" stroke="#887852" stroke-linecap="round" stroke-linejoin="round" stroke-width="1.5"/>
    <path id="Path_122798" data-name="Path 122798" d="M9.333,16.746A8.265,8.265,0,0,1,3.554,15.69c-2.068-1.379-2.068-3.638,0-5.017A8.317,8.317,0,0,1,9.377,9.632" transform="translate(0 3.501)" fill="none" stroke="#887852" stroke-linecap="round" stroke-linejoin="round" stroke-width="1.5"/>
    <path id="Path_122799" data-name="Path 122799" d="M13.246,17.039a.888.888,0,0,0-.279,0,3.792,3.792,0,1,1,.279,0Z" transform="translate(3.421 3.487)" fill="none" stroke="#887852" stroke-linecap="round" stroke-linejoin="round" stroke-width="1.5"/>
    <path id="Path_122800" data-name="Path 122800" d="M9.584,18.151c-2.068,1.379-2.068,3.638,0,5.017a8.328,8.328,0,0,0,8.537,0c2.068-1.379,2.068-3.638,0-5.017A8.4,8.4,0,0,0,9.584,18.151Z" transform="translate(2.815 6.995)" fill="none" stroke="#887852" stroke-linecap="round" stroke-linejoin="round" stroke-width="1.5"/>
  </g>
</svg>
