<svg xmlns="http://www.w3.org/2000/svg" width="30.224" height="32.417" viewBox="0 0 30.224 32.417">
  <g id="user-edit" transform="translate(-2.66 -1.25)">
    <path id="Path_122820" data-name="Path 122820" d="M14.729,17.458A7.729,7.729,0,1,0,7,9.729,7.729,7.729,0,0,0,14.729,17.458Z" transform="translate(1.96)" fill="none" stroke="#887852" stroke-linecap="round" stroke-linejoin="round" stroke-width="1.5"/>
    <path id="Path_122821" data-name="Path 122821" d="M21.415,16.053l-5.472,5.472a1.9,1.9,0,0,0-.464.912l-.294,2.087A.981.981,0,0,0,16.36,25.7l2.087-.294a1.839,1.839,0,0,0,.912-.464l5.472-5.472c.943-.943,1.391-2.04,0-3.432C23.455,14.662,22.358,15.11,21.415,16.053Z" transform="translate(6.419 7.187)" fill="none" stroke="#887852" stroke-linecap="round" stroke-linejoin="round" stroke-miterlimit="10" stroke-width="1.5"/>
    <path id="Path_122822" data-name="Path 122822" d="M18.7,16.25a4.924,4.924,0,0,0,3.432,3.432" transform="translate(8.346 7.778)" fill="none" stroke="#887852" stroke-linecap="round" stroke-linejoin="round" stroke-miterlimit="10" stroke-width="1.5"/>
    <path id="Path_122823" data-name="Path 122823" d="M3.41,25.821C3.41,19.838,9.361,15,16.689,15a15.925,15.925,0,0,1,4.591.665" transform="translate(0 7.096)" fill="none" stroke="#887852" stroke-linecap="round" stroke-linejoin="round" stroke-width="1.5"/>
  </g>
</svg>
