<svg id="chart2" xmlns="http://www.w3.org/2000/svg" width="46.022" height="27.296" viewBox="0 0 46.022 27.296">
  <g id="Group_2555" data-name="Group 2555" transform="translate(0.002 0.058)" opacity="0.2">
    <path id="Path_6622" data-name="Path 6622" d="M281.812,330.418h-45.9v-15.6l4.21,4.628,4.357,1.319,3.823-2.572,4.612-7.979,2.32-2.988,1.7-.729,1.622.194,2.668,2.941,3.628,5.155,2.847.815,2.257-1.736,4.785-8.74,2.442-1.943,2.556.882,2.081,2.681Z" transform="translate(-235.91 -303.18)" fill="#756b65"/>
  </g>
  <path id="Path_6623" data-name="Path 6623" d="M303.432,352.211c-4.14,0-7.964-5.64-8.012-5.713l.115-.378c.059.089,5.946,8.765,10.948,4.419,1.824-1.594,3.122-4.05,4.379-6.435,1.312-2.49,2.55-4.84,4.239-5.861,1.936-1.168,4.053-.112,5.661,2.833,1.375,2.517,4.113,6.558,7.005,5.351,1.474-.617,2.716-3.016,4.032-5.556,2.522-4.87,5.131-9.906,9.644-2.681l-.12.369c-4.382-7.016-6.927-2.1-9.39,2.656-1.337,2.581-2.6,5.011-4.128,5.658-2.975,1.244-5.77-2.879-7.173-5.446-1.557-2.849-3.6-3.872-5.478-2.745-1.644.993-2.863,3.312-4.16,5.767-1.269,2.41-2.58,4.9-4.436,6.512A4.677,4.677,0,0,1,303.432,352.211Z" transform="translate(-295.42 -334.576)" fill="#756b65"/>
  <ellipse id="Ellipse_520" data-name="Ellipse 520" cx="2.239" cy="2.535" rx="2.239" ry="2.535" transform="translate(19.95 0.814)" fill="#756b65"/>
</svg>
